<svg xmlns="http://www.w3.org/2000/svg" version="1.1" xmlns:xlink="http://www.w3.org/1999/xlink" xmlns:svgjs="http://svgjs.dev/svgjs" width="1440" height="560" preserveAspectRatio="none" viewBox="0 0 1440 560"><g mask="url(&quot;#SvgjsMask1109&quot;)" fill="none"><path d="M-73.99 341L-73.99 341" stroke="rgba(57, 82, 57, 1)" stroke-width="1.5"></path><path d="M-73.99 341L-96.92 492.2" stroke="rgba(57, 82, 57, 1)" stroke-width="1.5"></path><path d="M-73.99 341L91.37 343.7" stroke="rgba(57, 82, 57, 1)" stroke-width="1.5"></path><path d="M-73.99 341L102.87 558.45" stroke="rgba(57, 82, 57, 1)" stroke-width="1.5"></path><path d="M-73.99 341L205.41 393.11" stroke="rgba(57, 82, 57, 1)" stroke-width="1.5"></path><path d="M-73.99 341L211.51 521.15" stroke="rgba(57, 82, 57, 1)" stroke-width="1.5"></path><path d="M-96.92 492.2L-96.92 492.2" stroke="rgba(57, 82, 57, 1)" stroke-width="1.5"></path><path d="M-96.92 492.2L-70.56 697.71" stroke="rgba(57, 82, 57, 1)" stroke-width="1.5"></path><path d="M-96.92 492.2L102.87 558.45" stroke="rgba(57, 82, 57, 1)" stroke-width="1.5"></path><path d="M-96.92 492.2L91.37 343.7" stroke="rgba(57, 82, 57, 1)" stroke-width="1.5"></path><path d="M-96.92 492.2L86.86 649.53" stroke="rgba(57, 82, 57, 1)" stroke-width="1.5"></path><path d="M-96.92 492.2L211.51 521.15" stroke="rgba(57, 82, 57, 1)" stroke-width="1.5"></path><path d="M-70.56 697.71L-70.56 697.71" stroke="rgba(57, 82, 57, 1)" stroke-width="1.5"></path><path d="M-70.56 697.71L86.86 649.53" stroke="rgba(57, 82, 57, 1)" stroke-width="1.5"></path><path d="M-70.56 697.71L102.87 558.45" stroke="rgba(57, 82, 57, 1)" stroke-width="1.5"></path><path d="M-70.56 697.71L188.99 644.95" stroke="rgba(57, 82, 57, 1)" stroke-width="1.5"></path><path d="M91.37 343.7L91.37 343.7" stroke="rgba(57, 82, 57, 1)" stroke-width="1.5"></path><path d="M91.37 343.7L205.41 393.11" stroke="rgba(57, 82, 57, 1)" stroke-width="1.5"></path><path d="M91.37 343.7L211.51 521.15" stroke="rgba(57, 82, 57, 1)" stroke-width="1.5"></path><path d="M91.37 343.7L102.87 558.45" stroke="rgba(57, 82, 57, 1)" stroke-width="1.5"></path><path d="M102.87 558.45L102.87 558.45" stroke="rgba(57, 82, 57, 1)" stroke-width="1.5"></path><path d="M102.87 558.45L86.86 649.53" stroke="rgba(57, 82, 57, 1)" stroke-width="1.5"></path><path d="M102.87 558.45L211.51 521.15" stroke="rgba(57, 82, 57, 1)" stroke-width="1.5"></path><path d="M102.87 558.45L188.99 644.95" stroke="rgba(57, 82, 57, 1)" stroke-width="1.5"></path><path d="M86.86 649.53L86.86 649.53" stroke="rgba(57, 82, 57, 1)" stroke-width="1.5"></path><path d="M86.86 649.53L188.99 644.95" stroke="rgba(57, 82, 57, 1)" stroke-width="1.5"></path><path d="M86.86 649.53L211.51 521.15" stroke="rgba(57, 82, 57, 1)" stroke-width="1.5"></path><path d="M205.41 393.11L205.41 393.11" stroke="rgba(57, 82, 57, 1)" stroke-width="1.5"></path><path d="M205.41 393.11L211.51 521.15" stroke="rgba(57, 82, 57, 1)" stroke-width="1.5"></path><path d="M205.41 393.11L394.35 350.05" stroke="rgba(57, 82, 57, 1)" stroke-width="1.5"></path><path d="M211.51 521.15L211.51 521.15" stroke="rgba(57, 82, 57, 1)" stroke-width="1.5"></path><path d="M211.51 521.15L188.99 644.95" stroke="rgba(57, 82, 57, 1)" stroke-width="1.5"></path><path d="M211.51 521.15L381.68 650.02" stroke="rgba(57, 82, 57, 1)" stroke-width="1.5"></path><path d="M188.99 644.95L188.99 644.95" stroke="rgba(57, 82, 57, 1)" stroke-width="1.5"></path><path d="M394.35 350.05L394.35 350.05" stroke="rgba(57, 82, 57, 1)" stroke-width="1.5"></path><path d="M394.35 350.05L539.94 342.85" stroke="rgba(57, 82, 57, 1)" stroke-width="1.5"></path><path d="M394.35 350.05L488.57 561.22" stroke="rgba(57, 82, 57, 1)" stroke-width="1.5"></path><path d="M394.35 350.05L211.51 521.15" stroke="rgba(57, 82, 57, 1)" stroke-width="1.5"></path><path d="M394.35 350.05L656.01 226.63" stroke="rgba(57, 82, 57, 1)" stroke-width="1.5"></path><path d="M381.68 650.02L381.68 650.02" stroke="rgba(57, 82, 57, 1)" stroke-width="1.5"></path><path d="M381.68 650.02L489.48 710.02" stroke="rgba(57, 82, 57, 1)" stroke-width="1.5"></path><path d="M381.68 650.02L488.57 561.22" stroke="rgba(57, 82, 57, 1)" stroke-width="1.5"></path><path d="M381.68 650.02L188.99 644.95" stroke="rgba(57, 82, 57, 1)" stroke-width="1.5"></path><path d="M539.94 342.85L539.94 342.85" stroke="rgba(57, 82, 57, 1)" stroke-width="1.5"></path><path d="M539.94 342.85L656.01 226.63" stroke="rgba(57, 82, 57, 1)" stroke-width="1.5"></path><path d="M539.94 342.85L488.57 561.22" stroke="rgba(57, 82, 57, 1)" stroke-width="1.5"></path><path d="M539.94 342.85L685.59 540.59" stroke="rgba(57, 82, 57, 1)" stroke-width="1.5"></path><path d="M488.57 561.22L488.57 561.22" stroke="rgba(57, 82, 57, 1)" stroke-width="1.5"></path><path d="M488.57 561.22L489.48 710.02" stroke="rgba(57, 82, 57, 1)" stroke-width="1.5"></path><path d="M489.48 710.02L489.48 710.02" stroke="rgba(57, 82, 57, 1)" stroke-width="1.5"></path><path d="M656.01 226.63L656.01 226.63" stroke="rgba(57, 82, 57, 1)" stroke-width="1.5"></path><path d="M656.01 226.63L834.45 260.56" stroke="rgba(57, 82, 57, 1)" stroke-width="1.5"></path><path d="M656.01 226.63L841.85 409.46" stroke="rgba(57, 82, 57, 1)" stroke-width="1.5"></path><path d="M685.59 540.59L685.59 540.59" stroke="rgba(57, 82, 57, 1)" stroke-width="1.5"></path><path d="M685.59 540.59L675.16 671.1" stroke="rgba(57, 82, 57, 1)" stroke-width="1.5"></path><path d="M685.59 540.59L488.57 561.22" stroke="rgba(57, 82, 57, 1)" stroke-width="1.5"></path><path d="M685.59 540.59L841.85 409.46" stroke="rgba(57, 82, 57, 1)" stroke-width="1.5"></path><path d="M675.16 671.1L675.16 671.1" stroke="rgba(57, 82, 57, 1)" stroke-width="1.5"></path><path d="M675.16 671.1L489.48 710.02" stroke="rgba(57, 82, 57, 1)" stroke-width="1.5"></path><path d="M675.16 671.1L862.28 702.53" stroke="rgba(57, 82, 57, 1)" stroke-width="1.5"></path><path d="M675.16 671.1L488.57 561.22" stroke="rgba(57, 82, 57, 1)" stroke-width="1.5"></path><path d="M834.45 260.56L834.45 260.56" stroke="rgba(57, 82, 57, 1)" stroke-width="1.5"></path><path d="M834.45 260.56L975.36 234.12" stroke="rgba(57, 82, 57, 1)" stroke-width="1.5"></path><path d="M834.45 260.56L841.85 409.46" stroke="rgba(57, 82, 57, 1)" stroke-width="1.5"></path><path d="M841.85 409.46L841.85 409.46" stroke="rgba(57, 82, 57, 1)" stroke-width="1.5"></path><path d="M841.85 409.46L1002.38 376.87" stroke="rgba(57, 82, 57, 1)" stroke-width="1.5"></path><path d="M841.85 409.46L953.01 555.79" stroke="rgba(57, 82, 57, 1)" stroke-width="1.5"></path><path d="M862.28 702.53L862.28 702.53" stroke="rgba(57, 82, 57, 1)" stroke-width="1.5"></path><path d="M862.28 702.53L971.22 637.59" stroke="rgba(57, 82, 57, 1)" stroke-width="1.5"></path><path d="M862.28 702.53L953.01 555.79" stroke="rgba(57, 82, 57, 1)" stroke-width="1.5"></path><path d="M995.9 -93.96L995.9 -93.96" stroke="rgba(57, 82, 57, 1)" stroke-width="1.5"></path><path d="M995.9 -93.96L1130.49 -53.02" stroke="rgba(57, 82, 57, 1)" stroke-width="1.5"></path><path d="M995.9 -93.96L943.95 62.43" stroke="rgba(57, 82, 57, 1)" stroke-width="1.5"></path><path d="M995.9 -93.96L1157.98 104.53" stroke="rgba(57, 82, 57, 1)" stroke-width="1.5"></path><path d="M995.9 -93.96L1248.17 -43.33" stroke="rgba(57, 82, 57, 1)" stroke-width="1.5"></path><path d="M995.9 -93.96L975.36 234.12" stroke="rgba(57, 82, 57, 1)" stroke-width="1.5"></path><path d="M943.95 62.43L943.95 62.43" stroke="rgba(57, 82, 57, 1)" stroke-width="1.5"></path><path d="M943.95 62.43L975.36 234.12" stroke="rgba(57, 82, 57, 1)" stroke-width="1.5"></path><path d="M975.36 234.12L975.36 234.12" stroke="rgba(57, 82, 57, 1)" stroke-width="1.5"></path><path d="M975.36 234.12L1002.38 376.87" stroke="rgba(57, 82, 57, 1)" stroke-width="1.5"></path><path d="M975.36 234.12L1148.1 255.09" stroke="rgba(57, 82, 57, 1)" stroke-width="1.5"></path><path d="M975.36 234.12L1102.04 354.5" stroke="rgba(57, 82, 57, 1)" stroke-width="1.5"></path><path d="M975.36 234.12L841.85 409.46" stroke="rgba(57, 82, 57, 1)" stroke-width="1.5"></path><path d="M1002.38 376.87L1002.38 376.87" stroke="rgba(57, 82, 57, 1)" stroke-width="1.5"></path><path d="M1002.38 376.87L1102.04 354.5" stroke="rgba(57, 82, 57, 1)" stroke-width="1.5"></path><path d="M953.01 555.79L953.01 555.79" stroke="rgba(57, 82, 57, 1)" stroke-width="1.5"></path><path d="M953.01 555.79L971.22 637.59" stroke="rgba(57, 82, 57, 1)" stroke-width="1.5"></path><path d="M971.22 637.59L971.22 637.59" stroke="rgba(57, 82, 57, 1)" stroke-width="1.5"></path><path d="M1130.49 -53.02L1130.49 -53.02" stroke="rgba(57, 82, 57, 1)" stroke-width="1.5"></path><path d="M1130.49 -53.02L1248.17 -43.33" stroke="rgba(57, 82, 57, 1)" stroke-width="1.5"></path><path d="M1130.49 -53.02L1157.98 104.53" stroke="rgba(57, 82, 57, 1)" stroke-width="1.5"></path><path d="M1130.49 -53.02L1310.59 40.78" stroke="rgba(57, 82, 57, 1)" stroke-width="1.5"></path><path d="M1130.49 -53.02L943.95 62.43" stroke="rgba(57, 82, 57, 1)" stroke-width="1.5"></path><path d="M1157.98 104.53L1157.98 104.53" stroke="rgba(57, 82, 57, 1)" stroke-width="1.5"></path><path d="M1157.98 104.53L1243.09 192" stroke="rgba(57, 82, 57, 1)" stroke-width="1.5"></path><path d="M1157.98 104.53L1148.1 255.09" stroke="rgba(57, 82, 57, 1)" stroke-width="1.5"></path><path d="M1157.98 104.53L1310.59 40.78" stroke="rgba(57, 82, 57, 1)" stroke-width="1.5"></path><path d="M1157.98 104.53L1248.17 -43.33" stroke="rgba(57, 82, 57, 1)" stroke-width="1.5"></path><path d="M1148.1 255.09L1148.1 255.09" stroke="rgba(57, 82, 57, 1)" stroke-width="1.5"></path><path d="M1148.1 255.09L1102.04 354.5" stroke="rgba(57, 82, 57, 1)" stroke-width="1.5"></path><path d="M1148.1 255.09L1243.09 192" stroke="rgba(57, 82, 57, 1)" stroke-width="1.5"></path><path d="M1148.1 255.09L1002.38 376.87" stroke="rgba(57, 82, 57, 1)" stroke-width="1.5"></path><path d="M1148.1 255.09L1279.92 396.3" stroke="rgba(57, 82, 57, 1)" stroke-width="1.5"></path><path d="M1102.04 354.5L1102.04 354.5" stroke="rgba(57, 82, 57, 1)" stroke-width="1.5"></path><path d="M1102.04 354.5L1156.23 522.42" stroke="rgba(57, 82, 57, 1)" stroke-width="1.5"></path><path d="M1156.23 522.42L1156.23 522.42" stroke="rgba(57, 82, 57, 1)" stroke-width="1.5"></path><path d="M1156.23 522.42L1159.04 657.51" stroke="rgba(57, 82, 57, 1)" stroke-width="1.5"></path><path d="M1156.23 522.42L1296.82 500.87" stroke="rgba(57, 82, 57, 1)" stroke-width="1.5"></path><path d="M1159.04 657.51L1159.04 657.51" stroke="rgba(57, 82, 57, 1)" stroke-width="1.5"></path><path d="M1159.04 657.51L1290.64 686.32" stroke="rgba(57, 82, 57, 1)" stroke-width="1.5"></path><path d="M1159.04 657.51L971.22 637.59" stroke="rgba(57, 82, 57, 1)" stroke-width="1.5"></path><path d="M1159.04 657.51L1296.82 500.87" stroke="rgba(57, 82, 57, 1)" stroke-width="1.5"></path><path d="M1159.04 657.51L953.01 555.79" stroke="rgba(57, 82, 57, 1)" stroke-width="1.5"></path><path d="M1248.17 -43.33L1248.17 -43.33" stroke="rgba(57, 82, 57, 1)" stroke-width="1.5"></path><path d="M1248.17 -43.33L1310.59 40.78" stroke="rgba(57, 82, 57, 1)" stroke-width="1.5"></path><path d="M1248.17 -43.33L1450.75 -70.08" stroke="rgba(57, 82, 57, 1)" stroke-width="1.5"></path><path d="M1248.17 -43.33L1413.01 108.73" stroke="rgba(57, 82, 57, 1)" stroke-width="1.5"></path><path d="M1248.17 -43.33L1243.09 192" stroke="rgba(57, 82, 57, 1)" stroke-width="1.5"></path><path d="M1310.59 40.78L1310.59 40.78" stroke="rgba(57, 82, 57, 1)" stroke-width="1.5"></path><path d="M1310.59 40.78L1413.01 108.73" stroke="rgba(57, 82, 57, 1)" stroke-width="1.5"></path><path d="M1310.59 40.78L1243.09 192" stroke="rgba(57, 82, 57, 1)" stroke-width="1.5"></path><path d="M1243.09 192L1243.09 192" stroke="rgba(57, 82, 57, 1)" stroke-width="1.5"></path><path d="M1279.92 396.3L1279.92 396.3" stroke="rgba(57, 82, 57, 1)" stroke-width="1.5"></path><path d="M1279.92 396.3L1296.82 500.87" stroke="rgba(57, 82, 57, 1)" stroke-width="1.5"></path><path d="M1279.92 396.3L1435.22 406.06" stroke="rgba(57, 82, 57, 1)" stroke-width="1.5"></path><path d="M1279.92 396.3L1156.23 522.42" stroke="rgba(57, 82, 57, 1)" stroke-width="1.5"></path><path d="M1279.92 396.3L1102.04 354.5" stroke="rgba(57, 82, 57, 1)" stroke-width="1.5"></path><path d="M1296.82 500.87L1296.82 500.87" stroke="rgba(57, 82, 57, 1)" stroke-width="1.5"></path><path d="M1296.82 500.87L1425.61 523.23" stroke="rgba(57, 82, 57, 1)" stroke-width="1.5"></path><path d="M1290.64 686.32L1290.64 686.32" stroke="rgba(57, 82, 57, 1)" stroke-width="1.5"></path><path d="M1290.64 686.32L1423.89 707.49" stroke="rgba(57, 82, 57, 1)" stroke-width="1.5"></path><path d="M1290.64 686.32L1296.82 500.87" stroke="rgba(57, 82, 57, 1)" stroke-width="1.5"></path><path d="M1450.75 -70.08L1450.75 -70.08" stroke="rgba(57, 82, 57, 1)" stroke-width="1.5"></path><path d="M1450.75 -70.08L1570.78 -83.09" stroke="rgba(57, 82, 57, 1)" stroke-width="1.5"></path><path d="M1450.75 -70.08L1310.59 40.78" stroke="rgba(57, 82, 57, 1)" stroke-width="1.5"></path><path d="M1413.01 108.73L1413.01 108.73" stroke="rgba(57, 82, 57, 1)" stroke-width="1.5"></path><path d="M1413.01 108.73L1539.44 97.87" stroke="rgba(57, 82, 57, 1)" stroke-width="1.5"></path><path d="M1413.01 108.73L1431.05 243.23" stroke="rgba(57, 82, 57, 1)" stroke-width="1.5"></path><path d="M1431.05 243.23L1431.05 243.23" stroke="rgba(57, 82, 57, 1)" stroke-width="1.5"></path><path d="M1431.05 243.23L1553.85 213.98" stroke="rgba(57, 82, 57, 1)" stroke-width="1.5"></path><path d="M1435.22 406.06L1435.22 406.06" stroke="rgba(57, 82, 57, 1)" stroke-width="1.5"></path><path d="M1435.22 406.06L1425.61 523.23" stroke="rgba(57, 82, 57, 1)" stroke-width="1.5"></path><path d="M1425.61 523.23L1425.61 523.23" stroke="rgba(57, 82, 57, 1)" stroke-width="1.5"></path><path d="M1423.89 707.49L1423.89 707.49" stroke="rgba(57, 82, 57, 1)" stroke-width="1.5"></path><path d="M1423.89 707.49L1541.19 641.36" stroke="rgba(57, 82, 57, 1)" stroke-width="1.5"></path><path d="M1570.78 -83.09L1570.78 -83.09" stroke="rgba(57, 82, 57, 1)" stroke-width="1.5"></path><path d="M1570.78 -83.09L1539.44 97.87" stroke="rgba(57, 82, 57, 1)" stroke-width="1.5"></path><path d="M1570.78 -83.09L1413.01 108.73" stroke="rgba(57, 82, 57, 1)" stroke-width="1.5"></path><path d="M1570.78 -83.09L1310.59 40.78" stroke="rgba(57, 82, 57, 1)" stroke-width="1.5"></path><path d="M1570.78 -83.09L1553.85 213.98" stroke="rgba(57, 82, 57, 1)" stroke-width="1.5"></path><path d="M1570.78 -83.09L1248.17 -43.33" stroke="rgba(57, 82, 57, 1)" stroke-width="1.5"></path><path d="M1539.44 97.87L1539.44 97.87" stroke="rgba(57, 82, 57, 1)" stroke-width="1.5"></path><path d="M1539.44 97.87L1553.85 213.98" stroke="rgba(57, 82, 57, 1)" stroke-width="1.5"></path><path d="M1539.44 97.87L1431.05 243.23" stroke="rgba(57, 82, 57, 1)" stroke-width="1.5"></path><path d="M1539.44 97.87L1450.75 -70.08" stroke="rgba(57, 82, 57, 1)" stroke-width="1.5"></path><path d="M1539.44 97.87L1310.59 40.78" stroke="rgba(57, 82, 57, 1)" stroke-width="1.5"></path><path d="M1553.85 213.98L1553.85 213.98" stroke="rgba(57, 82, 57, 1)" stroke-width="1.5"></path><path d="M1553.85 213.98L1413.01 108.73" stroke="rgba(57, 82, 57, 1)" stroke-width="1.5"></path><path d="M1598.23 407.01L1598.23 407.01" stroke="rgba(57, 82, 57, 1)" stroke-width="1.5"></path><path d="M1598.23 407.01L1435.22 406.06" stroke="rgba(57, 82, 57, 1)" stroke-width="1.5"></path><path d="M1598.23 407.01L1553.85 213.98" stroke="rgba(57, 82, 57, 1)" stroke-width="1.5"></path><path d="M1598.23 407.01L1425.61 523.23" stroke="rgba(57, 82, 57, 1)" stroke-width="1.5"></path><path d="M1541.19 641.36L1541.19 641.36" stroke="rgba(57, 82, 57, 1)" stroke-width="1.5"></path><path d="M1541.19 641.36L1425.61 523.23" stroke="rgba(57, 82, 57, 1)" stroke-width="1.5"></path><path d="M1541.19 641.36L1598.23 407.01" stroke="rgba(57, 82, 57, 1)" stroke-width="1.5"></path><circle r="5" cx="-73.99" cy="341" fill="rgba(57, 82, 57, 1)"></circle><circle r="5" cx="-96.92" cy="492.2" fill="rgba(57, 82, 57, 1)"></circle><circle r="5" cx="-70.56" cy="697.71" fill="rgba(57, 82, 57, 1)"></circle><circle r="5" cx="91.37" cy="343.7" fill="rgba(57, 82, 57, 1)"></circle><circle r="5" cx="102.87" cy="558.45" fill="rgba(57, 82, 57, 1)"></circle><circle r="5" cx="86.86" cy="649.53" fill="rgba(57, 82, 57, 1)"></circle><circle r="5" cx="205.41" cy="393.11" fill="rgba(57, 82, 57, 1)"></circle><circle r="5" cx="211.51" cy="521.15" fill="rgba(57, 82, 57, 1)"></circle><circle r="5" cx="188.99" cy="644.95" fill="rgba(57, 82, 57, 1)"></circle><circle r="5" cx="394.35" cy="350.05" fill="rgba(57, 82, 57, 1)"></circle><circle r="5" cx="381.68" cy="650.02" fill="rgba(57, 82, 57, 1)"></circle><circle r="5" cx="539.94" cy="342.85" fill="rgba(57, 82, 57, 1)"></circle><circle r="5" cx="488.57" cy="561.22" fill="rgba(57, 82, 57, 1)"></circle><circle r="5" cx="489.48" cy="710.02" fill="rgba(57, 82, 57, 1)"></circle><circle r="5" cx="656.01" cy="226.63" fill="rgba(57, 82, 57, 1)"></circle><circle r="5" cx="685.59" cy="540.59" fill="rgba(57, 82, 57, 1)"></circle><circle r="5" cx="675.16" cy="671.1" fill="rgba(57, 82, 57, 1)"></circle><circle r="5" cx="834.45" cy="260.56" fill="rgba(57, 82, 57, 1)"></circle><circle r="5" cx="841.85" cy="409.46" fill="rgba(57, 82, 57, 1)"></circle><circle r="5" cx="862.28" cy="702.53" fill="rgba(57, 82, 57, 1)"></circle><circle r="5" cx="995.9" cy="-93.96" fill="rgba(57, 82, 57, 1)"></circle><circle r="5" cx="943.95" cy="62.43" fill="rgba(57, 82, 57, 1)"></circle><circle r="5" cx="975.36" cy="234.12" fill="rgba(57, 82, 57, 1)"></circle><circle r="5" cx="1002.38" cy="376.87" fill="rgba(57, 82, 57, 1)"></circle><circle r="5" cx="953.01" cy="555.79" fill="rgba(57, 82, 57, 1)"></circle><circle r="5" cx="971.22" cy="637.59" fill="rgba(57, 82, 57, 1)"></circle><circle r="5" cx="1130.49" cy="-53.02" fill="rgba(57, 82, 57, 1)"></circle><circle r="5" cx="1157.98" cy="104.53" fill="rgba(57, 82, 57, 1)"></circle><circle r="5" cx="1148.1" cy="255.09" fill="rgba(57, 82, 57, 1)"></circle><circle r="5" cx="1102.04" cy="354.5" fill="rgba(57, 82, 57, 1)"></circle><circle r="5" cx="1156.23" cy="522.42" fill="rgba(57, 82, 57, 1)"></circle><circle r="5" cx="1159.04" cy="657.51" fill="rgba(57, 82, 57, 1)"></circle><circle r="5" cx="1248.17" cy="-43.33" fill="rgba(57, 82, 57, 1)"></circle><circle r="5" cx="1310.59" cy="40.78" fill="rgba(57, 82, 57, 1)"></circle><circle r="5" cx="1243.09" cy="192" fill="rgba(57, 82, 57, 1)"></circle><circle r="5" cx="1279.92" cy="396.3" fill="rgba(57, 82, 57, 1)"></circle><circle r="5" cx="1296.82" cy="500.87" fill="rgba(57, 82, 57, 1)"></circle><circle r="5" cx="1290.64" cy="686.32" fill="rgba(57, 82, 57, 1)"></circle><circle r="5" cx="1450.75" cy="-70.08" fill="rgba(57, 82, 57, 1)"></circle><circle r="5" cx="1413.01" cy="108.73" fill="rgba(57, 82, 57, 1)"></circle><circle r="5" cx="1431.05" cy="243.23" fill="rgba(57, 82, 57, 1)"></circle><circle r="5" cx="1435.22" cy="406.06" fill="rgba(57, 82, 57, 1)"></circle><circle r="5" cx="1425.61" cy="523.23" fill="rgba(57, 82, 57, 1)"></circle><circle r="5" cx="1423.89" cy="707.49" fill="rgba(57, 82, 57, 1)"></circle><circle r="5" cx="1570.78" cy="-83.09" fill="rgba(57, 82, 57, 1)"></circle><circle r="5" cx="1539.44" cy="97.87" fill="rgba(57, 82, 57, 1)"></circle><circle r="5" cx="1553.85" cy="213.98" fill="rgba(57, 82, 57, 1)"></circle><circle r="5" cx="1598.23" cy="407.01" fill="rgba(57, 82, 57, 1)"></circle><circle r="5" cx="1541.19" cy="641.36" fill="rgba(57, 82, 57, 1)"></circle><path d="M93.94 492.8L93.94 492.8" stroke="hsl(120, 17.5%, 48.2%)" stroke-width="1.5"></path><path d="M93.94 492.8L-52.16 524.13" stroke="hsl(120, 17.5%, 48.2%)" stroke-width="1.5"></path><path d="M93.94 492.8L110.9 650.48" stroke="hsl(120, 17.5%, 48.2%)" stroke-width="1.5"></path><path d="M93.94 492.8L252.91 552.68" stroke="hsl(120, 17.5%, 48.2%)" stroke-width="1.5"></path><path d="M93.94 492.8L226.6 690.09" stroke="hsl(120, 17.5%, 48.2%)" stroke-width="1.5"></path><path d="M93.94 492.8L-93.29 662.77" stroke="hsl(120, 17.5%, 48.2%)" stroke-width="1.5"></path><path d="M93.94 492.8L389.41 489.76" stroke="hsl(120, 17.5%, 48.2%)" stroke-width="1.5"></path><path d="M110.9 650.48L110.9 650.48" stroke="hsl(120, 17.5%, 48.2%)" stroke-width="1.5"></path><path d="M110.9 650.48L226.6 690.09" stroke="hsl(120, 17.5%, 48.2%)" stroke-width="1.5"></path><path d="M1108.12 493.06L1108.12 493.06" stroke="hsl(120, 17.5%, 48.2%)" stroke-width="1.5"></path><path d="M1108.12 493.06L1135.84 392.33" stroke="hsl(120, 17.5%, 48.2%)" stroke-width="1.5"></path><path d="M1108.12 493.06L971.61 489.28" stroke="hsl(120, 17.5%, 48.2%)" stroke-width="1.5"></path><path d="M1445.41 -72.49L1445.41 -72.49" stroke="hsl(120, 17.5%, 48.2%)" stroke-width="1.5"></path><path d="M1445.41 -72.49L1576.07 -105.11" stroke="hsl(120, 17.5%, 48.2%)" stroke-width="1.5"></path><path d="M1445.41 -72.49L1243.45 -81.79" stroke="hsl(120, 17.5%, 48.2%)" stroke-width="1.5"></path><path d="M1445.41 -72.49L1594.94 75.89" stroke="hsl(120, 17.5%, 48.2%)" stroke-width="1.5"></path><path d="M1445.41 -72.49L1289.79 100.85" stroke="hsl(120, 17.5%, 48.2%)" stroke-width="1.5"></path><path d="M1587.95 258.16L1587.95 258.16" stroke="hsl(120, 17.5%, 48.2%)" stroke-width="1.5"></path><path d="M1587.95 258.16L1584.45 381.03" stroke="hsl(120, 17.5%, 48.2%)" stroke-width="1.5"></path><path d="M1587.95 258.16L1417.53 226.7" stroke="hsl(120, 17.5%, 48.2%)" stroke-width="1.5"></path><path d="M1602.46 656.08L1602.46 656.08" stroke="hsl(120, 17.5%, 48.2%)" stroke-width="1.5"></path><path d="M1602.46 656.08L1570.07 520.29" stroke="hsl(120, 17.5%, 48.2%)" stroke-width="1.5"></path><path d="M1602.46 656.08L1433.62 674.95" stroke="hsl(120, 17.5%, 48.2%)" stroke-width="1.5"></path><path d="M1602.46 656.08L1584.45 381.03" stroke="hsl(120, 17.5%, 48.2%)" stroke-width="1.5"></path><path d="M1602.46 656.08L1308.73 666.02" stroke="hsl(120, 17.5%, 48.2%)" stroke-width="1.5"></path><path d="M-52.16 524.13L-52.16 524.13" stroke="hsl(120, 17.5%, 48.2%)" stroke-width="1.5"></path><path d="M-52.16 524.13L-93.29 662.77" stroke="hsl(120, 17.5%, 48.2%)" stroke-width="1.5"></path><path d="M-93.29 662.77L-93.29 662.77" stroke="hsl(120, 17.5%, 48.2%)" stroke-width="1.5"></path><path d="M-93.29 662.77L110.9 650.48" stroke="hsl(120, 17.5%, 48.2%)" stroke-width="1.5"></path><path d="M252.91 552.68L252.91 552.68" stroke="hsl(120, 17.5%, 48.2%)" stroke-width="1.5"></path><path d="M252.91 552.68L354.92 642.18" stroke="hsl(120, 17.5%, 48.2%)" stroke-width="1.5"></path><path d="M252.91 552.68L226.6 690.09" stroke="hsl(120, 17.5%, 48.2%)" stroke-width="1.5"></path><path d="M252.91 552.68L389.41 489.76" stroke="hsl(120, 17.5%, 48.2%)" stroke-width="1.5"></path><path d="M252.91 552.68L110.9 650.48" stroke="hsl(120, 17.5%, 48.2%)" stroke-width="1.5"></path><path d="M226.6 690.09L226.6 690.09" stroke="hsl(120, 17.5%, 48.2%)" stroke-width="1.5"></path><path d="M226.6 690.09L354.92 642.18" stroke="hsl(120, 17.5%, 48.2%)" stroke-width="1.5"></path><path d="M389.41 489.76L389.41 489.76" stroke="hsl(120, 17.5%, 48.2%)" stroke-width="1.5"></path><path d="M389.41 489.76L506.24 558.58" stroke="hsl(120, 17.5%, 48.2%)" stroke-width="1.5"></path><path d="M389.41 489.76L354.92 642.18" stroke="hsl(120, 17.5%, 48.2%)" stroke-width="1.5"></path><path d="M389.41 489.76L502.1 677.67" stroke="hsl(120, 17.5%, 48.2%)" stroke-width="1.5"></path><path d="M389.41 489.76L226.6 690.09" stroke="hsl(120, 17.5%, 48.2%)" stroke-width="1.5"></path><path d="M389.41 489.76L660.81 513.94" stroke="hsl(120, 17.5%, 48.2%)" stroke-width="1.5"></path><path d="M354.92 642.18L354.92 642.18" stroke="hsl(120, 17.5%, 48.2%)" stroke-width="1.5"></path><path d="M354.92 642.18L502.1 677.67" stroke="hsl(120, 17.5%, 48.2%)" stroke-width="1.5"></path><path d="M354.92 642.18L506.24 558.58" stroke="hsl(120, 17.5%, 48.2%)" stroke-width="1.5"></path><path d="M506.24 558.58L506.24 558.58" stroke="hsl(120, 17.5%, 48.2%)" stroke-width="1.5"></path><path d="M506.24 558.58L502.1 677.67" stroke="hsl(120, 17.5%, 48.2%)" stroke-width="1.5"></path><path d="M506.24 558.58L660.81 513.94" stroke="hsl(120, 17.5%, 48.2%)" stroke-width="1.5"></path><path d="M502.1 677.67L502.1 677.67" stroke="hsl(120, 17.5%, 48.2%)" stroke-width="1.5"></path><path d="M502.1 677.67L644.7 678.46" stroke="hsl(120, 17.5%, 48.2%)" stroke-width="1.5"></path><path d="M502.1 677.67L660.81 513.94" stroke="hsl(120, 17.5%, 48.2%)" stroke-width="1.5"></path><path d="M502.1 677.67L226.6 690.09" stroke="hsl(120, 17.5%, 48.2%)" stroke-width="1.5"></path><path d="M695.47 368.78L695.47 368.78" stroke="hsl(120, 17.5%, 48.2%)" stroke-width="1.5"></path><path d="M695.47 368.78L660.81 513.94" stroke="hsl(120, 17.5%, 48.2%)" stroke-width="1.5"></path><path d="M695.47 368.78L850.63 382.86" stroke="hsl(120, 17.5%, 48.2%)" stroke-width="1.5"></path><path d="M695.47 368.78L849.64 491.84" stroke="hsl(120, 17.5%, 48.2%)" stroke-width="1.5"></path><path d="M695.47 368.78L506.24 558.58" stroke="hsl(120, 17.5%, 48.2%)" stroke-width="1.5"></path><path d="M695.47 368.78L966.93 396.78" stroke="hsl(120, 17.5%, 48.2%)" stroke-width="1.5"></path><path d="M695.47 368.78L971.61 489.28" stroke="hsl(120, 17.5%, 48.2%)" stroke-width="1.5"></path><path d="M660.81 513.94L660.81 513.94" stroke="hsl(120, 17.5%, 48.2%)" stroke-width="1.5"></path><path d="M660.81 513.94L644.7 678.46" stroke="hsl(120, 17.5%, 48.2%)" stroke-width="1.5"></path><path d="M660.81 513.94L849.64 491.84" stroke="hsl(120, 17.5%, 48.2%)" stroke-width="1.5"></path><path d="M644.7 678.46L644.7 678.46" stroke="hsl(120, 17.5%, 48.2%)" stroke-width="1.5"></path><path d="M644.7 678.46L818.56 705.34" stroke="hsl(120, 17.5%, 48.2%)" stroke-width="1.5"></path><path d="M644.7 678.46L506.24 558.58" stroke="hsl(120, 17.5%, 48.2%)" stroke-width="1.5"></path><path d="M850.63 382.86L850.63 382.86" stroke="hsl(120, 17.5%, 48.2%)" stroke-width="1.5"></path><path d="M850.63 382.86L849.64 491.84" stroke="hsl(120, 17.5%, 48.2%)" stroke-width="1.5"></path><path d="M850.63 382.86L966.93 396.78" stroke="hsl(120, 17.5%, 48.2%)" stroke-width="1.5"></path><path d="M850.63 382.86L971.61 489.28" stroke="hsl(120, 17.5%, 48.2%)" stroke-width="1.5"></path><path d="M850.63 382.86L660.81 513.94" stroke="hsl(120, 17.5%, 48.2%)" stroke-width="1.5"></path><path d="M849.64 491.84L849.64 491.84" stroke="hsl(120, 17.5%, 48.2%)" stroke-width="1.5"></path><path d="M849.64 491.84L971.61 489.28" stroke="hsl(120, 17.5%, 48.2%)" stroke-width="1.5"></path><path d="M849.64 491.84L966.93 396.78" stroke="hsl(120, 17.5%, 48.2%)" stroke-width="1.5"></path><path d="M818.56 705.34L818.56 705.34" stroke="hsl(120, 17.5%, 48.2%)" stroke-width="1.5"></path><path d="M818.56 705.34L945.49 669.83" stroke="hsl(120, 17.5%, 48.2%)" stroke-width="1.5"></path><path d="M818.56 705.34L849.64 491.84" stroke="hsl(120, 17.5%, 48.2%)" stroke-width="1.5"></path><path d="M966.93 396.78L966.93 396.78" stroke="hsl(120, 17.5%, 48.2%)" stroke-width="1.5"></path><path d="M966.93 396.78L971.61 489.28" stroke="hsl(120, 17.5%, 48.2%)" stroke-width="1.5"></path><path d="M971.61 489.28L971.61 489.28" stroke="hsl(120, 17.5%, 48.2%)" stroke-width="1.5"></path><path d="M971.61 489.28L945.49 669.83" stroke="hsl(120, 17.5%, 48.2%)" stroke-width="1.5"></path><path d="M945.49 669.83L945.49 669.83" stroke="hsl(120, 17.5%, 48.2%)" stroke-width="1.5"></path><path d="M1162.18 -104.02L1162.18 -104.02" stroke="hsl(120, 17.5%, 48.2%)" stroke-width="1.5"></path><path d="M1162.18 -104.02L1243.45 -81.79" stroke="hsl(120, 17.5%, 48.2%)" stroke-width="1.5"></path><path d="M1162.18 -104.02L1289.79 100.85" stroke="hsl(120, 17.5%, 48.2%)" stroke-width="1.5"></path><path d="M1162.18 -104.02L1445.41 -72.49" stroke="hsl(120, 17.5%, 48.2%)" stroke-width="1.5"></path><path d="M1128.34 233.03L1128.34 233.03" stroke="hsl(120, 17.5%, 48.2%)" stroke-width="1.5"></path><path d="M1128.34 233.03L1242.42 226.52" stroke="hsl(120, 17.5%, 48.2%)" stroke-width="1.5"></path><path d="M1128.34 233.03L1135.84 392.33" stroke="hsl(120, 17.5%, 48.2%)" stroke-width="1.5"></path><path d="M1128.34 233.03L1289.79 100.85" stroke="hsl(120, 17.5%, 48.2%)" stroke-width="1.5"></path><path d="M1128.34 233.03L1299.35 361.64" stroke="hsl(120, 17.5%, 48.2%)" stroke-width="1.5"></path><path d="M1128.34 233.03L966.93 396.78" stroke="hsl(120, 17.5%, 48.2%)" stroke-width="1.5"></path><path d="M1135.84 392.33L1135.84 392.33" stroke="hsl(120, 17.5%, 48.2%)" stroke-width="1.5"></path><path d="M1135.84 392.33L1299.35 361.64" stroke="hsl(120, 17.5%, 48.2%)" stroke-width="1.5"></path><path d="M1135.84 392.33L966.93 396.78" stroke="hsl(120, 17.5%, 48.2%)" stroke-width="1.5"></path><path d="M1135.84 392.33L971.61 489.28" stroke="hsl(120, 17.5%, 48.2%)" stroke-width="1.5"></path><path d="M1153.49 646.05L1153.49 646.05" stroke="hsl(120, 17.5%, 48.2%)" stroke-width="1.5"></path><path d="M1153.49 646.05L1308.73 666.02" stroke="hsl(120, 17.5%, 48.2%)" stroke-width="1.5"></path><path d="M1153.49 646.05L1108.12 493.06" stroke="hsl(120, 17.5%, 48.2%)" stroke-width="1.5"></path><path d="M1153.49 646.05L1300.87 503.82" stroke="hsl(120, 17.5%, 48.2%)" stroke-width="1.5"></path><path d="M1153.49 646.05L945.49 669.83" stroke="hsl(120, 17.5%, 48.2%)" stroke-width="1.5"></path><path d="M1153.49 646.05L971.61 489.28" stroke="hsl(120, 17.5%, 48.2%)" stroke-width="1.5"></path><path d="M1243.45 -81.79L1243.45 -81.79" stroke="hsl(120, 17.5%, 48.2%)" stroke-width="1.5"></path><path d="M1243.45 -81.79L1289.79 100.85" stroke="hsl(120, 17.5%, 48.2%)" stroke-width="1.5"></path><path d="M1289.79 100.85L1289.79 100.85" stroke="hsl(120, 17.5%, 48.2%)" stroke-width="1.5"></path><path d="M1289.79 100.85L1242.42 226.52" stroke="hsl(120, 17.5%, 48.2%)" stroke-width="1.5"></path><path d="M1289.79 100.85L1417.53 226.7" stroke="hsl(120, 17.5%, 48.2%)" stroke-width="1.5"></path><path d="M1242.42 226.52L1242.42 226.52" stroke="hsl(120, 17.5%, 48.2%)" stroke-width="1.5"></path><path d="M1242.42 226.52L1299.35 361.64" stroke="hsl(120, 17.5%, 48.2%)" stroke-width="1.5"></path><path d="M1242.42 226.52L1417.53 226.7" stroke="hsl(120, 17.5%, 48.2%)" stroke-width="1.5"></path><path d="M1299.35 361.64L1299.35 361.64" stroke="hsl(120, 17.5%, 48.2%)" stroke-width="1.5"></path><path d="M1299.35 361.64L1427.87 360.14" stroke="hsl(120, 17.5%, 48.2%)" stroke-width="1.5"></path><path d="M1299.35 361.64L1300.87 503.82" stroke="hsl(120, 17.5%, 48.2%)" stroke-width="1.5"></path><path d="M1300.87 503.82L1300.87 503.82" stroke="hsl(120, 17.5%, 48.2%)" stroke-width="1.5"></path><path d="M1300.87 503.82L1308.73 666.02" stroke="hsl(120, 17.5%, 48.2%)" stroke-width="1.5"></path><path d="M1308.73 666.02L1308.73 666.02" stroke="hsl(120, 17.5%, 48.2%)" stroke-width="1.5"></path><path d="M1308.73 666.02L1433.62 674.95" stroke="hsl(120, 17.5%, 48.2%)" stroke-width="1.5"></path><path d="M1308.73 666.02L1108.12 493.06" stroke="hsl(120, 17.5%, 48.2%)" stroke-width="1.5"></path><path d="M1417.53 226.7L1417.53 226.7" stroke="hsl(120, 17.5%, 48.2%)" stroke-width="1.5"></path><path d="M1417.53 226.7L1427.87 360.14" stroke="hsl(120, 17.5%, 48.2%)" stroke-width="1.5"></path><path d="M1427.87 360.14L1427.87 360.14" stroke="hsl(120, 17.5%, 48.2%)" stroke-width="1.5"></path><path d="M1427.87 360.14L1584.45 381.03" stroke="hsl(120, 17.5%, 48.2%)" stroke-width="1.5"></path><path d="M1427.87 360.14L1587.95 258.16" stroke="hsl(120, 17.5%, 48.2%)" stroke-width="1.5"></path><path d="M1433.62 674.95L1433.62 674.95" stroke="hsl(120, 17.5%, 48.2%)" stroke-width="1.5"></path><path d="M1433.62 674.95L1570.07 520.29" stroke="hsl(120, 17.5%, 48.2%)" stroke-width="1.5"></path><path d="M1576.07 -105.11L1576.07 -105.11" stroke="hsl(120, 17.5%, 48.2%)" stroke-width="1.5"></path><path d="M1576.07 -105.11L1594.94 75.89" stroke="hsl(120, 17.5%, 48.2%)" stroke-width="1.5"></path><path d="M1576.07 -105.11L1243.45 -81.79" stroke="hsl(120, 17.5%, 48.2%)" stroke-width="1.5"></path><path d="M1594.94 75.89L1594.94 75.89" stroke="hsl(120, 17.5%, 48.2%)" stroke-width="1.5"></path><path d="M1594.94 75.89L1587.95 258.16" stroke="hsl(120, 17.5%, 48.2%)" stroke-width="1.5"></path><path d="M1594.94 75.89L1417.53 226.7" stroke="hsl(120, 17.5%, 48.2%)" stroke-width="1.5"></path><path d="M1594.94 75.89L1584.45 381.03" stroke="hsl(120, 17.5%, 48.2%)" stroke-width="1.5"></path><path d="M1584.45 381.03L1584.45 381.03" stroke="hsl(120, 17.5%, 48.2%)" stroke-width="1.5"></path><path d="M1584.45 381.03L1570.07 520.29" stroke="hsl(120, 17.5%, 48.2%)" stroke-width="1.5"></path><path d="M1584.45 381.03L1417.53 226.7" stroke="hsl(120, 17.5%, 48.2%)" stroke-width="1.5"></path><path d="M1570.07 520.29L1570.07 520.29" stroke="hsl(120, 17.5%, 48.2%)" stroke-width="1.5"></path><circle r="25" cx="93.94" cy="492.8" fill="url(&quot;#SvgjsRadialGradient1110&quot;)"></circle><circle r="25" cx="110.9" cy="650.48" fill="url(&quot;#SvgjsRadialGradient1110&quot;)"></circle><circle r="25" cx="1108.12" cy="493.06" fill="url(&quot;#SvgjsRadialGradient1110&quot;)"></circle><circle r="25" cx="1445.41" cy="-72.49" fill="url(&quot;#SvgjsRadialGradient1110&quot;)"></circle><circle r="25" cx="1587.95" cy="258.16" fill="url(&quot;#SvgjsRadialGradient1110&quot;)"></circle><circle r="25" cx="1602.46" cy="656.08" fill="url(&quot;#SvgjsRadialGradient1110&quot;)"></circle><circle r="5" cx="-52.16" cy="524.13" fill="#a7b7a7"></circle><circle r="5" cx="-93.29" cy="662.77" fill="#a7b7a7"></circle><circle r="5" cx="252.91" cy="552.68" fill="#a7b7a7"></circle><circle r="5" cx="226.6" cy="690.09" fill="#a7b7a7"></circle><circle r="5" cx="389.41" cy="489.76" fill="#a7b7a7"></circle><circle r="5" cx="354.92" cy="642.18" fill="#a7b7a7"></circle><circle r="5" cx="506.24" cy="558.58" fill="#a7b7a7"></circle><circle r="5" cx="502.1" cy="677.67" fill="#a7b7a7"></circle><circle r="5" cx="695.47" cy="368.78" fill="#a7b7a7"></circle><circle r="5" cx="660.81" cy="513.94" fill="#a7b7a7"></circle><circle r="5" cx="644.7" cy="678.46" fill="#a7b7a7"></circle><circle r="5" cx="850.63" cy="382.86" fill="#a7b7a7"></circle><circle r="5" cx="849.64" cy="491.84" fill="#a7b7a7"></circle><circle r="5" cx="818.56" cy="705.34" fill="#a7b7a7"></circle><circle r="5" cx="966.93" cy="396.78" fill="#a7b7a7"></circle><circle r="5" cx="971.61" cy="489.28" fill="#a7b7a7"></circle><circle r="5" cx="945.49" cy="669.83" fill="#a7b7a7"></circle><circle r="5" cx="1162.18" cy="-104.02" fill="#a7b7a7"></circle><circle r="5" cx="1128.34" cy="233.03" fill="#a7b7a7"></circle><circle r="5" cx="1135.84" cy="392.33" fill="#a7b7a7"></circle><circle r="5" cx="1153.49" cy="646.05" fill="#a7b7a7"></circle><circle r="5" cx="1243.45" cy="-81.79" fill="#a7b7a7"></circle><circle r="5" cx="1289.79" cy="100.85" fill="#a7b7a7"></circle><circle r="5" cx="1242.42" cy="226.52" fill="#a7b7a7"></circle><circle r="5" cx="1299.35" cy="361.64" fill="#a7b7a7"></circle><circle r="5" cx="1300.87" cy="503.82" fill="#a7b7a7"></circle><circle r="5" cx="1308.73" cy="666.02" fill="#a7b7a7"></circle><circle r="5" cx="1417.53" cy="226.7" fill="#a7b7a7"></circle><circle r="5" cx="1427.87" cy="360.14" fill="#a7b7a7"></circle><circle r="5" cx="1433.62" cy="674.95" fill="#a7b7a7"></circle><circle r="5" cx="1576.07" cy="-105.11" fill="#a7b7a7"></circle><circle r="5" cx="1594.94" cy="75.89" fill="#a7b7a7"></circle><circle r="5" cx="1584.45" cy="381.03" fill="#a7b7a7"></circle><circle r="5" cx="1570.07" cy="520.29" fill="#a7b7a7"></circle></g><defs><mask id="SvgjsMask1109"><rect width="1440" height="560" fill="#ffffff"></rect></mask><radialGradient id="SvgjsRadialGradient1110"><stop stop-color="#ffffff" offset="0.1"></stop><stop stop-color="rgba(78, 111, 78, 1)" offset="0.2"></stop><stop stop-color="rgba(78, 111, 78, 0)" offset="1"></stop></radialGradient></defs></svg>